<svg width="64" height="64" viewBox="0 0 64 64" fill="none" xmlns="http://www.w3.org/2000/svg">
<path d="M64 48C64 49.886 63.2508 51.6947 61.9172 53.0283C60.5836 54.3619 58.7749 55.1111 56.8889 55.1111H7.11111C5.22513 55.1111 3.41639 54.3619 2.0828 53.0283C0.749204 51.6947 0 49.886 0 48V16C0 14.114 0.749204 12.3053 2.0828 10.9717C3.41639 9.63812 5.22513 8.88892 7.11111 8.88892H56.8889C58.7749 8.88892 60.5836 9.63812 61.9172 10.9717C63.2508 12.3053 64 14.114 64 16V48Z" fill="#DE2910"/>
<path d="M19.7975 15.959L21.1059 16.5919L22.153 15.5857L21.9557 17.0257L23.2357 17.7119L21.8064 17.9679L21.5504 19.3972L20.8642 18.1172L19.4242 18.3146L20.4304 17.2675L19.7975 15.959ZM28.0908 21.1875L27.4579 22.4941L28.4642 23.543L27.0259 23.3439L26.3397 24.6257L26.0837 23.1946L24.6526 22.9386L25.9344 22.2524L25.7353 20.8141L26.7842 21.8204L28.0908 21.1875ZM26.3895 27.9057L26.8659 29.2781L28.3184 29.3084L27.161 30.1848L27.5824 31.5768L26.3895 30.7466L25.1966 31.5768L25.6162 30.1848L24.4588 29.3084L25.9113 29.2781L26.3895 27.9057ZM19.7975 33.7368L21.1059 34.3697L22.153 33.3635L21.9557 34.8035L23.2357 35.4897L21.8064 35.7457L21.5504 37.175L20.8642 35.895L19.4242 36.0924L20.4304 35.0452L19.7975 33.7368ZM12.4446 19.4684L14.0962 24.2168L19.1202 24.3199L15.1148 27.3564L16.5708 32.167L12.4446 29.2959L8.31838 32.167L9.77438 27.3564L5.76904 24.3199L10.793 24.2168L12.4446 19.4684Z" fill="#FFDE02"/>
</svg>
